# 3ds Max Wavefront OBJ Exporter v0.97b - (c)2007 guruware
# File Created: 30.01.2016 22:47:20

mtllib 3d-model.mtl

#
# object Layer0_001
#

v  -192.4224 1292.5197 -305.5976
v  124.0749 1292.5197 -326.6193
v  124.0749 1308.2677 -326.6193
v  -192.4224 1308.2677 -305.5976
v  -145.1696 1292.5197 405.8270
v  -352.9795 1292.5197 419.6297
v  -352.9795 1308.2677 419.6297
v  -145.1696 1308.2677 405.8270
v  -405.4767 1292.5197 -370.7548
v  -405.4767 1308.2677 -370.7548
v  -197.6669 1292.5197 -384.5575
v  -197.6669 1308.2677 -384.5575
v  156.9207 1308.2677 385.7622
v  156.9207 1292.5197 385.7622
v  151.7022 1292.5197 307.1951
v  151.7022 1308.2677 307.1951
v  118.8304 1292.5197 -405.5792
v  118.8304 1308.2677 -405.5792
v  323.1047 1292.5197 -419.1471
v  323.1047 1308.2677 -419.1471
v  375.1845 1292.5197 364.9520
v  375.1845 1308.2677 364.9520
v  -150.3880 1292.5197 327.2599
v  -150.3880 1308.2677 327.2599
v  104.2485 1200.3223 -356.0650
v  -164.7839 1198.8745 -338.1959
v  -164.7839 1308.2677 -338.1959
v  104.2485 1308.2677 -356.0650
v  -125.8031 0.0000 427.0448
v  140.8901 0.0000 409.3311
v  140.8901 1199.6464 409.3311
v  -125.8031 1200.5240 427.0448
v  172.6928 1308.2677 411.1644
v  172.6928 0.0000 411.1644
v  172.1970 0.0000 403.7006
v  172.1970 1308.2677 403.7006
v  141.1510 0.0000 413.2594
v  141.1510 1308.2677 413.2594
v  399.0143 0.0000 388.6354
v  399.0143 1308.2677 388.6354
v  -154.4237 0.0000 434.0752
v  -154.4237 1308.2677 434.0752
v  -154.9977 1308.2677 425.4328
v  -154.9977 0.0000 425.4328
v  -125.4639 0.0000 432.1517
v  -125.4639 1308.2677 432.1517
v  99.3170 0.0000 -430.3109
v  -169.7153 0.0000 -412.4418
v  -169.7153 1198.8745 -412.4418
v  99.3170 1200.3223 -430.3109
v  -201.9865 0.0000 -403.5906
v  -201.9865 1308.2677 -403.5906
v  -202.6127 1308.2677 -413.0187
v  -202.6127 0.0000 -413.0187
v  -169.8979 0.0000 -415.1916
v  -169.8979 1308.2677 -415.1916
v  126.2419 1308.2677 -425.3915
v  126.2419 0.0000 -425.3915
v  125.7983 0.0000 -432.0698
v  125.7983 1308.2677 -432.0698
v  99.3170 1308.2677 -430.3109
v  -427.1495 0.0000 -388.6354
v  -427.1495 1308.2677 -388.6354
v  343.9861 0.0000 -439.8541
v  343.9861 1308.2677 -439.8541
v  -372.1213 0.0000 439.8541
v  -372.1213 1308.2677 439.8541
v  -130.9172 1200.5240 350.0491
v  135.7760 1199.6464 332.3354
v  135.7760 1308.2677 332.3354
v  -130.9172 1308.2677 350.0491
v  456.5447 136.9131 -105.5789
v  366.5854 136.9131 -99.6038
v  376.0830 136.9131 43.3882
v  466.0422 136.9131 37.4131
v  368.7497 125.1022 -67.0201
v  366.5854 125.1022 -99.6038
v  456.5447 125.1022 -105.5789
v  374.1728 125.1022 14.6293
v  376.0830 125.1022 43.3882
v  466.0422 125.1022 37.4131
v  365.7159 137.4231 -112.6960
v  356.2706 137.4231 -254.9023
v  405.3749 137.4231 -258.1638
v  414.8203 137.4231 -115.9575
v  405.3749 1200.0215 -258.1638
v  356.2706 1200.0215 -254.9023
v  365.7159 1200.0215 -112.6960
v  414.8203 1200.0215 -115.9575
v  426.0123 1200.1331 52.5461
v  376.9079 1200.1331 55.8076
v  386.4315 1200.1331 199.1924
v  435.5359 1200.1331 195.9309
v  -144.2775 1292.5197 -27.7215
v  82.4398 1292.5197 -95.4679
v  85.9240 1292.5197 -43.0115
v  252.1446 1292.5197 -106.7397
v  265.1124 1292.5197 88.4994
v  95.4076 1292.5197 99.7712
v  -40.1299 1292.5197 84.5206
v  -136.3977 1292.5197 90.9147
v  89.8639 1292.5197 16.3067
v  -44.0698 1292.5197 25.2025
v  -136.3977 1426.7716 90.9147
v  -40.1299 1426.7716 84.5206
v  -44.0698 1426.7716 25.2025
v  -144.2775 1426.7716 -27.7215
v  85.9240 1426.7716 -43.0115
v  89.8639 1426.7716 16.3067
v  252.1446 1426.7716 -106.7397
v  82.4398 1426.7716 -95.4679
v  95.4076 1426.7716 99.7712
v  265.1124 1426.7716 88.4994
v  386.4315 140.2906 199.1924
v  376.9079 140.2906 55.8076
v  426.0123 140.2906 52.5461
v  435.5359 140.2906 195.9309
v  374.1728 22.2976 14.6293
v  368.7497 22.2976 -67.0201
v  363.0316 128.3345 -153.1093
v  363.0316 46.0511 -153.1093
v  357.5784 46.0511 -235.2119
v  357.5784 128.3345 -235.2119
v  384.6267 129.4514 172.0204
v  384.6267 46.3806 172.0204
v  379.1213 46.3806 89.1322
v  379.1213 129.4514 89.1322
v  -385.6533 52.3320 236.1205
v  -385.6533 126.7415 236.1205
v  -390.5847 126.7415 161.8746
v  -390.5847 52.3320 161.8746
v  -436.1472 1065.2366 111.5313
v  -436.5401 1065.2366 111.5574
v  -426.6512 1065.2366 260.4419
v  -426.2584 1065.2366 260.4158
v  -426.2584 1119.5564 260.4158
v  -436.1472 1119.5564 111.5313
v  -384.2250 136.8792 257.6240
v  -394.1139 136.8792 108.7394
v  -407.9959 48.5587 -100.2650
v  -384.2250 1119.5564 257.6240
v  -384.5204 1199.2518 253.1759
v  -394.1223 1199.2518 108.6126
v  -394.1223 1192.9526 108.6126
v  -405.8182 1199.8270 -67.4782
v  -415.7593 1199.8270 -217.1485
v  -415.7593 137.2286 -217.1485
v  -413.1882 48.5587 -178.4392
v  -413.1882 126.9052 -178.4392
v  -407.9959 126.9052 -100.2650
v  -405.8182 137.2286 -67.4782
v  -394.1139 1065.2366 108.7394
v  -394.1139 1119.5564 108.7394
v  -393.7993 1119.5564 113.4756
v  -384.6149 1065.2256 251.7536
v  -384.6149 1119.5564 251.7536
v  -384.5204 1192.9526 253.1759
v  -393.7993 1065.2256 113.4756
v  -384.2250 1065.2366 257.6240
v  -426.9466 1192.9526 255.9939
v  -436.5485 1192.9526 111.4305
v  -426.9466 1199.2518 255.9939
v  -436.5485 1199.2518 111.4305
v  -456.1011 137.2286 -64.1385
v  -456.1011 1199.8270 -64.1385
v  -466.0422 1199.8270 -213.8087
v  -466.0422 137.2286 -213.8087
v  -436.5401 136.8792 111.5574
v  -426.6512 136.8792 260.4419
v  -427.9760 1065.2256 115.7456
v  -418.7916 1065.2256 254.0236
v  -427.9760 1119.5564 115.7456
v  -418.7916 1119.5564 254.0236
# 173 vertices

vn 0.0663 0.0000 0.9978
vn -0.0663 0.0000 -0.9978
vn 0.9978 0.0000 -0.0663
vn -0.9978 0.0000 0.0663
vn -0.0949 0.0000 -0.9955
vn 0.0000 1.0000 -0.0000
vn -0.0000 -1.0000 -0.0000
vn 0.0033 1.0000 -0.0002
vn -0.0054 1.0000 0.0004
vn 0.9978 -0.0000 -0.0663
vn -0.0663 -0.0000 -0.9978
vn 0.0000 -1.0000 -0.0000
# 12 vertex normals

vt -0.3281 0.9859 0.0000
vt 0.0381 0.9859 0.0000
vt 0.0381 0.9979 0.0000
vt -0.3281 0.9979 0.0000
vt 0.3281 0.9859 0.0000
vt 0.5686 0.9859 0.0000
vt 0.5686 0.9979 0.0000
vt 0.3281 0.9979 0.0000
vt 2.0532 0.9979 0.0000
vt 2.0532 0.9859 0.0000
vt 2.9677 0.9859 0.0000
vt 2.9677 0.9979 0.0000
vt -0.5686 0.9859 0.0000
vt -0.5686 0.9979 0.0000
vt -2.8764 0.9859 0.0000
vt -2.8764 0.9979 0.0000
vt -2.9677 0.9979 0.0000
vt -2.9677 0.9859 0.0000
vt 2.1441 0.9859 0.0000
vt 2.1441 0.9979 0.0000
vt 2.8764 0.9979 0.0000
vt 2.8764 0.9859 0.0000
vt 0.2745 0.9859 0.0000
vt 0.2745 0.9979 0.0000
vt -0.3335 0.9859 0.0000
vt -0.0804 0.9859 0.0000
vt -0.0804 0.9979 0.0000
vt -0.3335 0.9979 0.0000
vt -2.0605 0.9859 0.0000
vt -2.0605 0.9979 0.0000
vt -0.0214 0.9859 0.0000
vt -0.0214 0.9979 0.0000
vt -0.6447 0.9168 0.0000
vt -0.3334 0.9157 0.0000
vt -0.3334 0.9991 0.0000
vt -0.6447 0.9991 0.0000
vt 0.3575 0.0016 0.0000
vt 0.6661 0.0016 0.0000
vt 0.6661 0.9166 0.0000
vt 0.3575 0.9173 0.0000
vt -0.0166 0.9986 0.0000
vt -0.0166 0.0007 0.0000
vt -0.0080 0.0007 0.0000
vt -0.0080 0.9986 0.0000
vt 0.6707 0.0007 0.0000
vt 0.7072 0.0007 0.0000
vt 0.7072 0.9986 0.0000
vt 0.6707 0.9986 0.0000
vt 0.9697 0.0007 0.0000
vt 0.9697 0.9986 0.0000
vt -0.1776 0.0009 0.0000
vt -0.1776 0.9988 0.0000
vt -0.1876 0.9988 0.0000
vt -0.1876 0.0009 0.0000
vt -0.6905 0.0009 0.0000
vt -0.6570 0.0009 0.0000
vt -0.6570 0.9988 0.0000
vt -0.6905 0.9988 0.0000
vt -0.6447 0.0012 0.0000
vt -0.3334 0.0012 0.0000
vt 0.0930 0.0019 0.0000
vt 0.0930 0.9998 0.0000
vt 0.0821 0.9998 0.0000
vt 0.0821 0.0019 0.0000
vt 0.6678 0.0019 0.0000
vt 0.7057 0.0019 0.0000
vt 0.7057 0.9998 0.0000
vt 0.6678 0.9998 0.0000
vt 0.1535 1.0001 0.0000
vt 0.1535 0.0022 0.0000
vt 0.1613 0.0022 0.0000
vt 0.1613 1.0001 0.0000
vt -0.6913 0.0022 0.0000
vt -0.6607 0.0022 0.0000
vt -0.6607 0.9178 0.0000
vt -0.6913 1.0001 0.0000
vt -0.6607 1.0001 0.0000
vt 0.9662 0.0019 0.0000
vt 0.9662 0.9998 0.0000
vt -0.9432 0.0022 0.0000
vt -0.9432 1.0001 0.0000
vt -0.8870 0.9167 0.0000
vt -0.8870 0.9991 0.0000
vt -0.9729 0.9991 0.0000
vt -0.9729 0.9167 0.0000
vt 1.0949 0.9159 0.0000
vt 1.0949 0.0014 0.0000
vt 1.0981 0.0014 0.0000
vt 1.0981 0.9993 0.0000
vt 1.0090 0.9993 0.0000
vt 1.0090 0.9159 0.0000
vt -0.9417 0.0009 0.0000
vt -0.9417 0.9988 0.0000
vt 0.6661 0.9995 0.0000
vt 0.3575 0.9995 0.0000
vt 0.0384 0.9152 0.0000
vt 0.0429 0.0002 0.0000
vt 0.0429 0.9981 0.0000
vt -0.0507 0.9981 0.0000
vt -0.0507 0.9152 0.0000
vt 0.0384 0.0002 0.0000
vt -0.1200 0.9985 0.0000
vt -0.1200 0.0006 0.0000
vt -0.1141 0.0006 0.0000
vt -0.1141 0.9163 0.0000
vt -0.0250 0.9985 0.0000
vt -0.0250 0.9163 0.0000
vt 2.6527 11.6672 0.0000
vt 2.6527 11.7884 0.0000
vt 2.0467 11.7884 0.0000
vt 2.0467 11.6672 0.0000
vt -0.9679 4.4132 0.0000
vt -0.9679 3.7193 0.0000
vt 0.1351 3.7193 0.0000
vt 0.1351 4.4132 0.0000
vt 0.7166 3.7193 0.0000
vt 0.9679 3.7193 0.0000
vt 0.9679 4.4132 0.0000
vt 0.0867 3.7193 0.0000
vt -0.1351 3.7193 0.0000
vt -0.1351 4.4132 0.0000
vt 1.0689 3.7193 0.0000
vt 2.1659 3.7193 0.0000
vt 2.1659 4.0981 0.0000
vt 1.0689 4.0981 0.0000
vt -2.1659 4.0981 0.0000
vt -2.1659 3.7193 0.0000
vt -1.0689 3.7193 0.0000
vt -1.0689 4.0981 0.0000
vt 0.2309 4.0981 0.0000
vt 0.2309 3.7193 0.0000
vt 1.3370 3.7193 0.0000
vt 1.3370 4.0981 0.0000
vt -3.4442 -0.4688 0.0000
vt -3.4442 -2.0719 0.0000
vt 2.6527 -2.0719 0.0000
vt 2.6527 -0.4688 0.0000
vt -2.8351 -0.4688 0.0000
vt 2.0467 -0.4688 0.0000
vt -0.6765 -0.2408 0.0000
vt -2.8351 1.9726 0.0000
vt -1.0811 1.5349 0.0000
vt -0.6765 1.5349 0.0000
vt -1.0811 2.8440 0.0000
vt -3.4442 3.5484 0.0000
vt -3.4442 1.9726 0.0000
vt 0.4249 2.8440 0.0000
vt 2.6043 3.5484 0.0000
vt 2.6527 1.8615 0.0000
vt 2.0467 1.8615 0.0000
vt 0.4249 1.5349 0.0000
vt 0.2387 0.5018 0.0000
vt 0.2387 -0.2408 0.0000
vt -0.2189 1.5349 0.0000
vt -0.2189 0.5018 0.0000
vt -2.2316 -1.6960 0.0000
vt -2.2316 0.3613 0.0000
vt -2.8256 0.3613 0.0000
vt -2.8256 -1.6960 0.0000
vt -3.6441 1.8849 0.0000
vt -3.6441 -0.1904 0.0000
vt -3.0714 -0.1904 0.0000
vt -3.0714 1.8849 0.0000
vt -3.5926 -0.4923 0.0000
vt -3.5926 -2.2292 0.0000
vt -3.6653 -0.2399 0.0000
vt -3.6653 -0.4923 0.0000
vt -3.0714 -0.2399 0.0000
vt -3.0714 1.8354 0.0000
vt -3.6441 2.0396 0.0000
vt -3.6441 1.8354 0.0000
vt -3.5926 2.0396 0.0000
vt -3.5926 3.7193 0.0000
vt 2.7983 3.7193 0.0000
vt 2.7983 1.9696 0.0000
vt 2.8559 1.9696 0.0000
vt 2.8559 1.7263 0.0000
vt 2.2316 1.7263 0.0000
vt 2.2316 -0.3309 0.0000
vt 2.8650 -0.3309 0.0000
vt 2.8650 -0.5543 0.0000
vt 2.7983 -0.5543 0.0000
vt 2.7983 -2.2292 0.0000
vt -1.3370 3.7193 0.0000
vt -0.2309 3.7193 0.0000
vt -0.2309 4.0981 0.0000
vt -1.3370 4.0981 0.0000
vt -0.0253 1.0030 0.0000
vt -0.0253 -0.0415 0.0000
vt 1.0139 -0.0415 0.0000
vt 1.0139 1.0030 0.0000
vt -0.2119 0.0944 0.0000
vt -0.1030 0.0946 0.0000
vt -0.1030 0.1036 0.0000
vt -0.2119 0.1034 0.0000
vt 1.0610 0.0968 0.0000
vt 1.1693 0.0970 0.0000
vt 1.1693 0.1060 0.0000
vt 1.0610 0.1058 0.0000
vt 0.4586 0.1047 0.0000
vt 0.4586 0.0956 0.0000
vt 0.6311 0.0960 0.0000
vt 0.6311 0.1050 0.0000
vt 0.8657 0.0973 0.0000
vt 0.8657 0.0345 0.0000
vt 0.9646 0.0347 0.0000
vt 0.9646 0.0975 0.0000
vt 0.4876 0.0990 0.0000
vt 0.4876 0.0356 0.0000
vt 0.5876 0.0358 0.0000
vt 0.5876 0.0992 0.0000
vt -0.7282 0.1042 0.0000
vt -0.6687 0.1043 0.0000
vt -0.6687 0.9177 0.0000
vt -0.7282 0.9176 0.0000
vt 0.2684 0.1036 0.0000
vt 0.3253 0.1036 0.0000
vt 0.3253 0.9141 0.0000
vt 0.2684 0.9141 0.0000
vt 0.2729 0.9174 0.0000
vt 0.2729 0.1057 0.0000
vt 0.4447 0.1060 0.0000
vt 0.4447 0.9175 0.0000
vt -0.7297 0.1064 0.0000
vt -0.6701 0.1065 0.0000
vt -0.6701 0.9178 0.0000
vt -0.7297 0.9177 0.0000
vt 1.2725 0.1053 0.0000
vt 1.3316 0.1055 0.0000
vt 1.3316 0.9133 0.0000
vt 1.2725 0.9133 0.0000
vt 0.2704 0.9165 0.0000
vt 0.2704 0.1069 0.0000
vt 0.4436 0.1072 0.0000
vt 0.4436 0.9166 0.0000
vt 0.2082 0.0400 0.0000
vt 0.2082 0.0967 0.0000
vt 0.1223 0.0967 0.0000
vt 0.1223 0.0400 0.0000
vt 0.6470 -0.4496 0.0000
vt 0.8193 -0.4499 0.0000
vt 0.8193 0.6159 0.0000
vt 0.8193 0.6574 0.0000
vt 0.6470 0.6574 0.0000
vt 0.6470 0.6159 0.0000
vt -0.9627 1.1322 0.0000
vt -0.9627 1.0298 0.0000
vt -0.8940 1.0298 0.0000
vt -0.8940 1.1322 0.0000
vt -0.9741 1.1072 0.0000
vt -0.8627 1.1072 0.0000
vt -0.8627 1.2096 0.0000
vt -0.9741 1.2096 0.0000
vt -0.0393 0.8329 0.0000
vt 0.1157 0.8329 0.0000
vt 0.1157 0.9353 0.0000
vt -0.0393 0.9353 0.0000
vt 1.1291 0.8341 0.0000
vt 1.1291 0.9365 0.0000
vt 0.9918 0.9365 0.0000
vt 0.9918 0.8341 0.0000
vt -0.0712 1.9196 0.0000
vt 0.1406 1.8955 0.0000
vt 0.1299 1.9760 0.0000
vt -0.0819 2.0001 0.0000
vt 2.1175 1.2527 0.0000
vt 2.1175 1.3551 0.0000
vt 2.0209 1.3551 0.0000
vt 2.0209 1.2527 0.0000
vt 1.0972 0.7820 0.0000
vt 1.0972 0.8844 0.0000
vt 1.0365 0.8844 0.0000
vt 1.0365 0.7820 0.0000
vt 0.0414 0.9992 0.0000
vt 0.0414 -0.0008 0.0000
vt 0.3032 0.0352 0.0000
vt 0.4933 0.0172 0.0000
vt 1.0413 0.0013 0.0000
vt 0.5918 0.0174 0.0000
vt 0.6957 0.0358 0.0000
vt 0.7947 0.0360 0.0000
vt 0.7947 0.0988 0.0000
vt 0.8184 0.1057 0.0000
vt 0.8184 0.9166 0.0000
vt 1.0413 0.9992 0.0000
vt 0.6469 0.9165 0.0000
vt 0.4034 0.0989 0.0000
vt 0.4034 0.0354 0.0000
vt 0.3032 0.0987 0.0000
vt 0.4933 0.0957 0.0000
vt 0.6469 0.1054 0.0000
vt 0.5918 0.0959 0.0000
vt 0.6957 0.0986 0.0000
vt 0.7955 0.0969 0.0000
vt 0.8204 0.1046 0.0000
vt 0.6481 0.1046 0.0000
vt 0.7096 0.0969 0.0000
vt 0.7096 0.0401 0.0000
vt 0.4063 0.0372 0.0000
vt 0.0726 0.0002 0.0000
vt 0.7955 0.0401 0.0000
vt 1.0312 0.0002 0.0000
vt 0.8204 0.8542 0.0000
vt 0.8152 0.9149 0.0000
vt 1.0312 0.9981 0.0000
vt 0.0726 0.9981 0.0000
vt 0.6479 0.9149 0.0000
vt 0.6479 0.9101 0.0000
vt 0.4442 0.9154 0.0000
vt 0.2710 0.9154 0.0000
vt 0.2710 0.1049 0.0000
vt 0.3158 0.0372 0.0000
vt 0.3158 0.0970 0.0000
vt 0.4063 0.0970 0.0000
vt 0.4442 0.1049 0.0000
vt 0.6481 0.8127 0.0000
vt 0.6481 0.8542 0.0000
vt 0.6536 0.8542 0.0000
vt 0.8136 0.8127 0.0000
vt 0.8136 0.8542 0.0000
vt 0.8152 0.9101 0.0000
vt 0.6536 0.8127 0.0000
vt 0.8204 0.8127 0.0000
vt 0.2876 0.0512 0.0000
vt 0.4549 0.0512 0.0000
vt 0.4549 0.0836 0.0000
vt 0.2876 0.0836 0.0000
vt -0.0873 0.9101 0.0000
vt -0.0382 0.9101 0.0000
vt -0.0382 0.9149 0.0000
vt -0.0873 0.9149 0.0000
vt 0.0458 -0.3551 0.0000
vt 0.0458 -0.3876 0.0000
vt 0.2131 -0.3876 0.0000
vt 0.2131 -0.3551 0.0000
vt 1.0667 0.9101 0.0000
vt 1.1158 0.9101 0.0000
vt 1.1158 0.9149 0.0000
vt 1.0667 0.9149 0.0000
vt 1.9430 1.8943 0.0000
vt 2.1394 1.8943 0.0000
vt 2.1394 1.9967 0.0000
vt 1.9430 1.9967 0.0000
vt -1.0688 0.9969 0.0000
vt -1.0688 0.8945 0.0000
vt -0.8428 0.8945 0.0000
vt -0.8428 0.9969 0.0000
vt -1.0504 0.8950 0.0000
vt -0.8540 0.8950 0.0000
vt -0.8540 0.9974 0.0000
vt -1.0504 0.9974 0.0000
vt -0.0390 -0.0369 0.0000
vt -0.0390 -0.0754 0.0000
vt 0.1342 -0.0754 0.0000
vt 0.1342 -0.0369 0.0000
vt 1.3088 0.1030 0.0000
vt 1.3670 0.1030 0.0000
vt 1.3670 0.9135 0.0000
vt 1.3088 0.9135 0.0000
vt 0.9554 -0.4422 0.0000
vt 1.1286 -0.4422 0.0000
vt 1.1286 -0.4037 0.0000
vt 0.9554 -0.4037 0.0000
vt -0.6675 0.1044 0.0000
vt -0.6093 0.1044 0.0000
vt -0.6093 0.9149 0.0000
vt -0.6675 0.9149 0.0000
vt 1.6557 0.1021 0.0000
vt 1.7048 0.1021 0.0000
vt 1.7048 0.8102 0.0000
vt 1.6557 0.8102 0.0000
vt 0.4572 -0.3840 0.0000
vt 0.6295 -0.3840 0.0000
vt 0.6295 -0.3516 0.0000
vt 0.4572 -0.3516 0.0000
vt -0.3046 1.6161 0.0000
vt -0.2559 1.6161 0.0000
vt -0.2559 1.6575 0.0000
vt -0.3046 1.6575 0.0000
vt -1.0354 -0.2492 0.0000
vt -1.0354 -0.2753 0.0000
vt -0.8754 -0.2753 0.0000
vt -0.8754 -0.2492 0.0000
vt -1.0409 -0.2813 0.0000
vt -0.8686 -0.2813 0.0000
vt -0.8686 -0.2492 0.0000
vt -1.0409 -0.2492 0.0000
vt -0.6222 0.9283 0.0000
vt -0.5827 0.9283 0.0000
vt -0.5827 0.9698 0.0000
vt -0.6222 0.9698 0.0000
vt -1.4515 0.9975 0.0000
vt -1.4515 0.9560 0.0000
vt -1.2915 0.9560 0.0000
vt -1.2915 0.9975 0.0000
vt -1.7667 0.9283 0.0000
vt -1.7272 0.9283 0.0000
vt -1.7272 0.9698 0.0000
vt -1.7667 0.9698 0.0000
vt -0.2942 1.1047 0.0000
vt -0.2451 1.1047 0.0000
vt -0.2451 1.8128 0.0000
vt -0.2942 1.8128 0.0000
vt 1.6973 0.6154 0.0000
vt 1.7459 0.6154 0.0000
vt 1.7459 0.6568 0.0000
vt 1.6973 0.6568 0.0000
vt 0.5834 0.0370 0.0000
vt 0.5834 0.0967 0.0000
vt 0.4930 0.0370 0.0000
# 410 texture coords

g Layer0_001
usemtl Material2
s off
f 1/1/1 2/2/1 3/3/1 4/4/1 
f 5/5/2 6/6/2 7/7/2 8/8/2 
f 7/9/3 6/10/3 9/11/3 10/12/3 
f 9/13/1 11/1/1 12/4/1 10/14/1 
f 1/15/4 4/16/4 12/17/4 11/18/4 
f 13/9/3 14/10/3 15/19/3 16/20/3 
f 3/21/3 2/22/3 17/11/3 18/12/3 
f 17/2/1 19/23/1 20/24/1 18/3/1 
f 21/25/5 14/26/5 13/27/5 22/28/5 
f 21/29/4 22/30/4 20/17/4 19/18/4 
f 15/31/2 23/5/2 24/8/2 16/32/2 
f 25/33/2 26/34/2 27/35/2 28/36/2 
f 29/37/1 30/38/1 31/39/1 32/40/1 
f 33/41/3 34/42/3 35/43/3 36/44/3 
f 37/45/1 34/46/1 33/47/1 38/48/1 
f 35/46/1 39/49/1 40/50/1 36/47/1 
f 41/51/4 42/52/4 43/53/4 44/54/4 
f 41/55/1 45/56/1 46/57/1 42/58/1 
f 47/59/2 48/60/2 49/34/2 50/33/2 
f 51/61/4 52/62/4 53/63/4 54/64/4 
f 55/65/2 54/66/2 53/67/2 56/68/2 
f 57/69/3 58/70/3 59/71/3 60/72/3 
f 59/73/2 47/74/2 50/75/2 60/76/2 
f 60/76/2 50/75/2 61/77/2 
f 51/66/2 62/78/2 63/79/2 52/67/2 
f 64/80/2 58/73/2 57/76/2 65/81/2 
f 25/82/4 28/83/4 61/84/4 50/85/4 
f 49/86/3 48/87/3 55/88/3 56/89/3 
f 49/86/3 56/89/3 27/90/3 26/91/3 
f 66/92/1 44/55/1 43/58/1 67/93/1 
f 68/40/1 69/39/1 70/94/1 71/95/1 
f 31/96/4 37/97/4 38/98/4 70/99/4 
f 31/96/4 70/99/4 69/100/4 
f 30/101/4 37/97/4 31/96/4 
f 46/102/3 45/103/3 29/104/3 32/105/3 
f 71/106/3 46/102/3 32/105/3 68/107/3 
usemtl Concrete_Aggregate_Smoke
f 5/108/4 8/109/4 24/110/4 23/111/4 
f 72/112/6 73/113/6 74/114/6 75/115/6 
f 76/116/7 77/117/7 78/118/7 79/119/7 
f 80/120/7 79/119/7 78/118/7 81/121/7 
f 82/122/7 83/123/7 84/124/7 85/125/7 
f 86/126/6 87/127/6 88/128/6 89/129/6 
f 90/130/6 91/131/6 92/132/6 93/133/6 
f 11/134/6 9/135/6 6/136/6 5/137/6 
f 1/138/6 11/134/6 5/137/6 23/139/6 
f 1/138/6 23/139/6 94/140/6 2/141/6 
f 95/142/6 2/141/6 94/140/6 96/143/6 
f 2/141/6 95/142/6 97/144/6 19/145/6 
f 2/141/6 19/145/6 17/146/6 
f 19/145/6 97/144/6 98/147/6 21/148/6 
f 14/149/6 21/148/6 98/147/6 15/150/6 
f 15/150/6 98/147/6 99/151/6 100/152/6 
f 15/150/6 100/152/6 101/153/6 23/139/6 
f 23/139/6 101/153/6 94/140/6 
f 100/152/6 99/151/6 102/154/6 103/155/6 
f 69/156/8 68/157/8 32/158/8 31/159/8 
f 50/160/9 49/161/9 26/162/9 25/163/9 
f 104/153/6 105/152/6 106/155/6 107/140/6 
f 108/143/6 107/140/6 106/155/6 109/154/6 
f 52/164/6 63/165/6 10/135/6 12/134/6 
f 52/164/6 12/134/6 56/166/6 53/167/6 
f 56/166/6 12/134/6 4/138/6 27/168/6 
f 27/168/6 4/138/6 3/141/6 28/169/6 
f 28/169/6 3/141/6 18/146/6 60/170/6 
f 28/169/6 60/170/6 61/171/6 
f 57/172/6 60/170/6 18/146/6 20/145/6 
f 65/173/6 57/172/6 20/145/6 22/148/6 
f 40/174/6 65/173/6 22/148/6 36/175/6 
f 36/175/6 22/148/6 13/149/6 33/176/6 
f 38/177/6 33/176/6 13/149/6 16/150/6 
f 70/178/6 38/177/6 16/150/6 71/179/6 
f 71/179/6 16/150/6 24/139/6 8/137/6 
f 46/180/6 71/179/6 8/137/6 42/181/6 
f 43/182/6 42/181/6 8/137/6 7/136/6 
f 67/183/6 43/182/6 7/136/6 10/135/6 
f 67/183/6 10/135/6 63/165/6 
f 110/144/6 111/142/6 108/143/6 109/154/6 
f 110/144/6 109/154/6 112/151/6 113/147/6 
f 114/184/7 115/185/7 116/186/7 117/187/7 
usemtl Material3
f 79/188/10 118/189/10 119/190/10 76/191/10 
usemtl Material1
f 78/192/11 77/193/11 73/194/11 72/195/11 
f 80/196/1 81/197/1 75/198/1 74/199/1 
f 75/200/3 81/201/3 78/202/3 72/203/3 
f 120/204/3 121/205/3 122/206/3 123/207/3 
f 124/208/3 125/209/3 126/210/3 127/211/3 
f 84/212/11 83/213/11 87/214/11 86/215/11 
f 82/216/1 85/217/1 89/218/1 88/219/1 
f 89/220/3 85/221/3 84/222/3 86/223/3 
f 116/224/11 115/225/11 91/226/11 90/227/11 
f 114/228/1 117/229/1 93/230/1 92/231/1 
f 93/232/3 117/233/3 116/234/3 90/235/3 
f 128/236/4 129/237/4 130/238/4 131/239/4 
f 132/240/6 133/240/6 134/241/6 135/241/6 
f 135/242/4 136/243/4 137/244/4 132/245/4 
f 105/246/3 100/247/3 103/248/3 106/249/3 
f 101/250/1 100/251/1 105/252/1 104/253/1 
f 103/254/1 102/255/1 109/256/1 106/257/1 
f 101/258/4 104/259/4 107/260/4 94/261/4 
f 96/262/11 94/263/11 107/264/11 108/265/11 
f 99/266/4 112/267/4 109/268/4 102/269/4 
f 96/270/4 108/271/4 111/272/4 95/273/4 
f 114/233/3 40/274/3 39/275/3 125/276/3 
f 118/277/3 125/276/3 39/275/3 64/278/3 
f 119/279/3 118/277/3 64/278/3 121/280/3 
f 122/281/3 121/280/3 64/278/3 123/282/3 
f 83/283/3 123/282/3 64/278/3 87/284/3 
f 87/284/3 64/278/3 65/285/3 88/286/3 
f 91/235/3 88/286/3 65/285/3 92/232/3 
f 92/232/3 65/285/3 40/274/3 114/233/3 
f 74/200/3 88/286/3 91/235/3 80/201/3 
f 80/201/3 91/235/3 115/234/3 118/277/3 
f 118/277/3 115/234/3 127/287/3 126/288/3 
f 125/276/3 118/277/3 126/288/3 
f 124/289/3 127/287/3 115/234/3 114/233/3 
f 124/289/3 114/233/3 125/276/3 
f 79/290/3 80/201/3 118/277/3 
f 88/286/3 74/200/3 73/203/3 82/291/3 
f 121/280/3 82/291/3 73/203/3 77/202/3 
f 121/280/3 77/202/3 76/292/3 119/279/3 
f 82/291/3 121/280/3 120/293/3 83/283/3 
f 83/283/3 120/293/3 123/282/3 
f 129/294/4 138/295/4 139/296/4 130/297/4 
f 131/298/4 130/297/4 139/296/4 140/299/4 
f 131/298/4 140/299/4 62/300/4 128/301/4 
f 128/301/4 62/300/4 66/302/4 138/295/4 
f 141/303/4 138/295/4 66/302/4 142/304/4 
f 142/304/4 66/302/4 67/305/4 63/306/4 
f 143/307/4 142/304/4 63/306/4 144/308/4 
f 145/309/4 144/308/4 63/306/4 146/310/4 
f 147/311/4 146/310/4 63/306/4 62/300/4 
f 148/312/4 147/311/4 62/300/4 140/299/4 
f 147/311/4 148/312/4 149/313/4 150/314/4 
f 151/315/4 147/311/4 150/314/4 140/299/4 
f 151/315/4 140/299/4 139/296/4 144/308/4 
f 144/308/4 139/296/4 152/316/4 153/317/4 
f 144/308/4 153/317/4 154/318/4 155/319/4 
f 144/308/4 155/319/4 156/320/4 157/321/4 
f 157/321/4 156/320/4 141/303/4 142/304/4 
f 158/322/4 155/319/4 154/318/4 
f 151/315/4 144/308/4 145/309/4 
f 138/295/4 141/303/4 159/323/4 
f 128/301/4 138/295/4 129/294/4 
f 160/324/12 161/325/12 144/326/12 157/327/12 
f 160/328/1 157/329/1 142/330/1 162/331/1 
f 143/332/6 163/333/6 162/334/6 142/335/6 
f 144/336/11 161/337/11 163/338/11 143/339/11 
f 99/340/1 98/341/1 113/342/1 112/343/1 
f 113/344/3 98/345/3 97/346/3 110/347/3 
f 97/348/11 95/349/11 111/350/11 110/351/11 
f 164/315/4 165/309/4 166/310/4 167/311/4 
f 146/352/6 166/353/6 165/354/6 145/355/6 
f 147/356/11 167/357/11 166/358/11 146/359/11 
f 164/360/12 167/361/12 147/362/12 151/363/12 
f 164/364/1 151/365/1 145/366/1 165/367/1 
f 139/368/11 168/369/11 133/370/11 152/371/11 
f 152/371/11 133/370/11 132/370/11 
f 169/372/12 168/373/12 139/374/12 138/375/12 
f 135/376/1 159/377/1 141/378/1 136/379/1 
f 158/380/6 170/381/6 171/382/6 155/383/6 
f 172/381/6 137/384/6 136/385/6 173/382/6 
f 173/382/6 136/385/6 141/386/6 156/383/6 
f 153/387/6 137/384/6 172/381/6 154/380/6 
f 155/388/11 171/389/11 173/390/11 156/391/11 
f 173/392/3 171/393/3 170/394/3 172/395/3 
f 170/396/1 158/397/1 154/398/1 172/399/1 
f 169/295/4 134/323/4 133/316/4 168/296/4 
f 169/400/1 138/401/1 159/402/1 134/403/1 
f 134/403/1 159/402/1 135/403/1 
f 152/404/11 132/405/11 137/406/11 153/407/11 
f 160/321/4 162/304/4 163/307/4 161/308/4 
f 140/408/4 150/409/4 149/290/4 148/410/4 
# 154 polygons - 17 triangles

